<?xml version="1.0" encoding="UTF-8" standalone="no"?>
<!-- Created with Inkscape (http://www.inkscape.org/) -->

<svg
   width="101.09521"
   height="88.650185"
   viewBox="0 0 26.748107 23.455364"
   version="1.1"
   id="svg1717"
   inkscape:version="1.1.2 (0a00cf5339, 2022-02-04)"
   sodipodi:docname="favicon.svg"
   xmlns:inkscape="http://www.inkscape.org/namespaces/inkscape"
   xmlns:sodipodi="http://sodipodi.sourceforge.net/DTD/sodipodi-0.dtd"
   xmlns="http://www.w3.org/2000/svg"
   xmlns:svg="http://www.w3.org/2000/svg"
   xmlns:rdf="http://www.w3.org/1999/02/22-rdf-syntax-ns#"
   xmlns:cc="http://creativecommons.org/ns#"
   xmlns:dc="http://purl.org/dc/elements/1.1/">
  <defs
     id="defs1711" />
  <sodipodi:namedview
     id="base"
     pagecolor="#ffffff"
     bordercolor="#666666"
     borderopacity="1.0"
     inkscape:pageopacity="0.0"
     inkscape:pageshadow="2"
     inkscape:zoom="2.8"
     inkscape:cx="121.78571"
     inkscape:cy="53.571429"
     inkscape:document-units="mm"
     inkscape:current-layer="layer1"
     showgrid="false"
     inkscape:pagecheckerboard="true"
     fit-margin-top="0"
     fit-margin-left="0"
     fit-margin-right="0"
     fit-margin-bottom="0"
     inkscape:window-width="1920"
     inkscape:window-height="939"
     inkscape:window-x="0"
     inkscape:window-y="32"
     inkscape:window-maximized="1"
     units="px"
     lock-margins="true" />
  <metadata
     id="metadata1714">
    <rdf:RDF>
      <cc:Work
         rdf:about="">
        <dc:format>image/svg+xml</dc:format>
        <dc:type
           rdf:resource="http://purl.org/dc/dcmitype/StillImage" />
      </cc:Work>
    </rdf:RDF>
  </metadata>
  <g
     inkscape:label="Layer 1"
     inkscape:groupmode="layer"
     id="layer1"
     transform="translate(-72.244964,-190.77829)">
    <path
       style="opacity:1;fill:#161617;fill-opacity:1;stroke:none;stroke-width:0.564431;stroke-linecap:round;stroke-linejoin:miter;stroke-miterlimit:4;stroke-dasharray:none;stroke-dashoffset:0;stroke-opacity:1"
       d="m 96.482878,207.18777 c -0.496676,-0.0169 -1.025789,0.0675 -1.547204,0.2651 l -4.913921,1.8619 c -1.668489,0.63224 -2.606146,2.17846 -2.102194,3.46697 0.503952,1.28851 2.252716,1.81718 3.921205,1.18494 l 4.913921,-1.86242 c 1.668489,-0.63224 2.606147,-2.17846 2.102195,-3.46697 -0.346473,-0.88585 -1.281352,-1.41239 -2.374002,-1.44952 z"
       id="path210" />
    <path
       style="opacity:1;fill:#fedf2e;fill-opacity:1;stroke:none;stroke-width:0.564431;stroke-linecap:round;stroke-linejoin:miter;stroke-miterlimit:4;stroke-dasharray:none;stroke-dashoffset:0;stroke-opacity:1"
       d="m 74.429434,198.46065 c -0.251883,-0.003 -0.501994,0.0383 -0.743108,0.12971 -1.285902,0.48727 -1.807343,2.19381 -1.16893,3.82612 l 1.859836,4.75527 c 0.638439,1.63231 2.187787,2.55381 3.473688,2.06654 1.285928,-0.48728 1.80684,-2.1933 1.168426,-3.82561 l -1.859835,-4.75527 c -0.518716,-1.32625 -1.638591,-2.18329 -2.730077,-2.19676 z"
       id="path208" />
    <path
       style="opacity:1;fill:#00a851;fill-opacity:1;stroke:none;stroke-width:0.564431;stroke-linecap:round;stroke-linejoin:miter;stroke-miterlimit:4;stroke-dasharray:none;stroke-dashoffset:0;stroke-opacity:1"
       d="m 79.080836,194.49035 c -0.251884,-0.003 -0.501994,0.0389 -0.743109,0.13022 -1.285902,0.48727 -1.807342,2.1933 -1.168929,3.82561 l 3.363621,8.60051 c 0.638413,1.63231 2.187787,2.55433 3.473688,2.06705 1.285902,-0.48727 1.80684,-2.19381 1.1684,-3.82612 l -3.363621,-8.60051 c -0.518716,-1.32625 -1.638565,-2.18329 -2.73005,-2.19676 z"
       id="path206" />
    <path
       style="opacity:1;fill:#1a5aa0;fill-opacity:1;stroke:none;stroke-width:0.564431;stroke-linecap:round;stroke-linejoin:miter;stroke-miterlimit:4;stroke-dasharray:none;stroke-dashoffset:0;stroke-opacity:1"
       d="m 84.335302,191.88224 c -0.27432,-0.003 -0.546682,0.0421 -0.809255,0.14159 -1.400413,0.53066 -1.96805,2.38902 -1.272804,4.16667 l 3.910356,9.99784 c 0.695272,1.77765 2.382308,2.78168 3.782722,2.25103 1.400386,-0.53066 1.96805,-2.38902 1.272778,-4.16667 l -3.910357,-9.99836 c -0.564885,-1.44434 -1.7848,-2.37743 -2.97344,-2.3921 z"
       id="path204" />
    <path
       style="opacity:1;fill:#ec4739;fill-opacity:1;stroke:none;stroke-width:0.564431;stroke-linecap:round;stroke-linejoin:miter;stroke-miterlimit:4;stroke-dasharray:none;stroke-dashoffset:0;stroke-opacity:1"
       d="m 90.137006,190.77843 c -0.27432,-0.003 -0.546682,0.0421 -0.809255,0.14159 -1.400413,0.53066 -1.96805,2.38903 -1.272778,4.16667 l 3.606483,9.22115 c 0.695272,1.77765 2.382308,2.78168 3.782721,2.25102 1.400387,-0.53065 1.96805,-2.38902 1.272778,-4.16667 l -3.606482,-9.22114 c -0.564912,-1.44434 -1.7848,-2.37795 -2.973467,-2.39262 z"
       id="path5216" />
  </g>
</svg>
